<svg width="78" height="62" viewBox="0 0 78 62" fill="none" xmlns="http://www.w3.org/2000/svg">
<path d="M-7.56492e-06 21.0208H56L41.8028 49.0208H14.1972L-7.56492e-06 21.0208Z" fill="white"/>
<circle cx="14" cy="55.0208" r="6" fill="white"/>
<circle cx="41" cy="55.0208" r="6" fill="white"/>
<path d="M76 9.02073L76 13.0208L63 13.0208L51.8626 29.8487L47 26.3337L57 9.02078L76 9.02073Z" fill="white"/>
<path d="M58.1758 39.4661L59.043 30.9583H67.7852V32.9622H60.8828L60.3672 37.6145C61.2031 37.1223 62.1523 36.8762 63.2148 36.8762C64.7695 36.8762 66.0039 37.3918 66.918 38.4231C67.832 39.4465 68.2891 40.8333 68.2891 42.5833C68.2891 44.3411 67.8125 45.7278 66.8594 46.7434C65.9141 47.7512 64.5898 48.2551 62.8867 48.2551C61.3789 48.2551 60.1484 47.8372 59.1953 47.0012C58.2422 46.1653 57.6992 45.009 57.5664 43.5325H59.6172C59.75 44.509 60.0977 45.2473 60.6602 45.7473C61.2227 46.2395 61.9648 46.4856 62.8867 46.4856C63.8945 46.4856 64.6836 46.1418 65.2539 45.4543C65.832 44.7668 66.1211 43.8176 66.1211 42.6067C66.1211 41.4661 65.8086 40.552 65.1836 39.8645C64.5664 39.1692 63.7422 38.8215 62.7109 38.8215C61.7656 38.8215 61.0234 39.0286 60.4844 39.4426L59.9102 39.9114L58.1758 39.4661Z" fill="white"/>
</svg>
