<svg width="86" height="87" viewBox="0 0 86 87" fill="none" xmlns="http://www.w3.org/2000/svg">
<path d="M44.0603 21.1484L62.9823 32.0709L62.9823 54.071L44.0603 42.9955L44.0603 21.1484Z" fill="#FF6E40"/>
<path d="M25.2161 54.2428L25.0236 32.3955L43.9795 21.2296L44.0401 43.1546L25.2161 54.2428Z" fill="#FF9A61"/>
<path d="M25.3625 54.0055L44.2826 43.0798L63.3352 54.0799L44.2826 64.929L25.3625 54.0055Z" fill="#CC4900"/>
<path d="M2 20.8618L14.041 29.4625V57.8447L2 47.2372V20.8618Z" fill="#FF6E40"/>
<path d="M86 20.8618L73.959 29.4625V57.8447L86 47.2372V20.8618Z" fill="#FF6E40"/>
<path d="M2 21.1533L44.5043 0.0767822L86 21.1533L74.3293 29.4624L44.5043 13.4078L13.6707 29.4624L2 21.1533Z" fill="#F9A82F"/>
<path d="M23.1533 79H21.834V74.3994H16.8164V79H15.5039V69.0469H16.8164V73.3262H21.834V69.0469H23.1533V79ZM24.9512 75.2334C24.9512 74.5088 25.0924 73.8571 25.375 73.2783C25.6621 72.6995 26.0586 72.2529 26.5645 71.9385C27.0749 71.624 27.6559 71.4668 28.3076 71.4668C29.3148 71.4668 30.1283 71.8154 30.748 72.5127C31.3724 73.21 31.6846 74.1374 31.6846 75.2949V75.3838C31.6846 76.1038 31.5456 76.751 31.2676 77.3252C30.9941 77.8949 30.5999 78.3392 30.085 78.6582C29.5745 78.9772 28.9867 79.1367 28.3213 79.1367C27.3187 79.1367 26.5052 78.7881 25.8809 78.0908C25.2611 77.3936 24.9512 76.4707 24.9512 75.3223V75.2334ZM26.2227 75.3838C26.2227 76.2041 26.4118 76.8626 26.79 77.3594C27.1729 77.8561 27.6833 78.1045 28.3213 78.1045C28.9639 78.1045 29.4743 77.8538 29.8525 77.3525C30.2308 76.8467 30.4199 76.1403 30.4199 75.2334C30.4199 74.4222 30.2262 73.766 29.8389 73.2646C29.4561 72.7588 28.9456 72.5059 28.3076 72.5059C27.6833 72.5059 27.1797 72.7542 26.7969 73.251C26.4141 73.7477 26.2227 74.4587 26.2227 75.3838ZM34.9863 69.8125V71.6035H36.3672V72.5811H34.9863V77.168C34.9863 77.4642 35.0479 77.6875 35.1709 77.8379C35.2939 77.9837 35.5036 78.0566 35.7998 78.0566C35.9456 78.0566 36.1462 78.0293 36.4014 77.9746V79C36.0687 79.0911 35.7451 79.1367 35.4307 79.1367C34.8656 79.1367 34.4395 78.9658 34.1523 78.624C33.8652 78.2822 33.7217 77.7969 33.7217 77.168V72.5811H32.375V71.6035H33.7217V69.8125H34.9863ZM40.4824 75.2881H37.1465V74.2559H40.4824V75.2881ZM44.8506 74.5635C43.7249 74.2399 42.9046 73.8434 42.3896 73.374C41.8792 72.9001 41.624 72.3167 41.624 71.624C41.624 70.8402 41.9362 70.193 42.5605 69.6826C43.1895 69.1676 44.0052 68.9102 45.0078 68.9102C45.6914 68.9102 46.2998 69.0423 46.833 69.3066C47.3708 69.571 47.7855 69.9355 48.0771 70.4004C48.3734 70.8652 48.5215 71.3734 48.5215 71.9248H47.2021C47.2021 71.3232 47.0107 70.8516 46.6279 70.5098C46.2451 70.1634 45.7051 69.9902 45.0078 69.9902C44.3607 69.9902 43.8548 70.1338 43.4902 70.4209C43.1302 70.7035 42.9502 71.0977 42.9502 71.6035C42.9502 72.0091 43.1211 72.3532 43.4629 72.6357C43.8092 72.9137 44.3949 73.1689 45.2197 73.4014C46.0492 73.6338 46.6963 73.8913 47.1611 74.1738C47.6305 74.4518 47.9769 74.7777 48.2002 75.1514C48.4281 75.5251 48.542 75.9648 48.542 76.4707C48.542 77.2773 48.2275 77.9245 47.5986 78.4121C46.9697 78.8952 46.1289 79.1367 45.0762 79.1367C44.3926 79.1367 43.7546 79.0068 43.1621 78.7471C42.5697 78.4827 42.1117 78.1227 41.7881 77.667C41.4691 77.2113 41.3096 76.694 41.3096 76.1152H42.6289C42.6289 76.7168 42.8499 77.193 43.292 77.5439C43.7386 77.8903 44.3333 78.0635 45.0762 78.0635C45.7689 78.0635 46.2998 77.9222 46.6689 77.6396C47.0381 77.3571 47.2227 76.972 47.2227 76.4844C47.2227 75.9967 47.0518 75.6208 46.71 75.3564C46.3682 75.0876 45.7484 74.8232 44.8506 74.5635ZM51.748 69.8125V71.6035H53.1289V72.5811H51.748V77.168C51.748 77.4642 51.8096 77.6875 51.9326 77.8379C52.0557 77.9837 52.2653 78.0566 52.5615 78.0566C52.7074 78.0566 52.9079 78.0293 53.1631 77.9746V79C52.8304 79.0911 52.5068 79.1367 52.1924 79.1367C51.6273 79.1367 51.2012 78.9658 50.9141 78.624C50.627 78.2822 50.4834 77.7969 50.4834 77.168V72.5811H49.1367V71.6035H50.4834V69.8125H51.748ZM58.1875 72.7383C57.9961 72.7064 57.7887 72.6904 57.5654 72.6904C56.736 72.6904 56.1732 73.0436 55.877 73.75V79H54.6123V71.6035H55.8428L55.8633 72.458C56.278 71.7972 56.8659 71.4668 57.627 71.4668C57.873 71.4668 58.0599 71.4987 58.1875 71.5625V72.7383ZM58.8848 75.2334C58.8848 74.5088 59.026 73.8571 59.3086 73.2783C59.5957 72.6995 59.9922 72.2529 60.498 71.9385C61.0085 71.624 61.5895 71.4668 62.2412 71.4668C63.2484 71.4668 64.0618 71.8154 64.6816 72.5127C65.306 73.21 65.6182 74.1374 65.6182 75.2949V75.3838C65.6182 76.1038 65.4792 76.751 65.2012 77.3252C64.9277 77.8949 64.5335 78.3392 64.0186 78.6582C63.5081 78.9772 62.9202 79.1367 62.2549 79.1367C61.2523 79.1367 60.4388 78.7881 59.8145 78.0908C59.1947 77.3936 58.8848 76.4707 58.8848 75.3223V75.2334ZM60.1562 75.3838C60.1562 76.2041 60.3454 76.8626 60.7236 77.3594C61.1064 77.8561 61.6169 78.1045 62.2549 78.1045C62.8975 78.1045 63.4079 77.8538 63.7861 77.3525C64.1644 76.8467 64.3535 76.1403 64.3535 75.2334C64.3535 74.4222 64.1598 73.766 63.7725 73.2646C63.3896 72.7588 62.8792 72.5059 62.2412 72.5059C61.6169 72.5059 61.1133 72.7542 60.7305 73.251C60.3477 73.7477 60.1562 74.4587 60.1562 75.3838ZM68.5781 79H67.3135V71.6035H68.5781V79ZM67.2109 69.6416C67.2109 69.4365 67.2725 69.2633 67.3955 69.1221C67.5231 68.9808 67.71 68.9102 67.9561 68.9102C68.2021 68.9102 68.389 68.9808 68.5166 69.1221C68.6442 69.2633 68.708 69.4365 68.708 69.6416C68.708 69.8467 68.6442 70.0176 68.5166 70.1543C68.389 70.291 68.2021 70.3594 67.9561 70.3594C67.71 70.3594 67.5231 70.291 67.3955 70.1543C67.2725 70.0176 67.2109 69.8467 67.2109 69.6416Z" fill="#FF4242"/>
</svg>
